# xmcd
#
# Track frame offsets: 
#        150
#        21713
#        38975
#        64200
#        83838
#        100513
#        127488
#        151800
#        171338
#
# Disc length: 2586 seconds
#
# Revision: 2
# Processed by: cddbd v1.5.2PL0 Copyright (c) Steve Scherf et al.
# Submitted via: ExactAudioCopy v1.0b3
#
DISCID=7a0a1809
DTITLE=Walter "Wolfman" Washington - Wolf Tracks
DYEAR=1986
DGENRE=R&B
TTITLE0=I'm Tiptoeing Through
TTITLE1=Thinking for Yourself
TTITLE2=Are You the Lady?
TTITLE3=Sweet Cakes
TTITLE4=It Was Fun While It Lasted
TTITLE5=You Got Me Worried
TTITLE6=One Way or Another
TTITLE7=Can I Change My Mind
TTITLE8=Without You
EXTD=
EXTT0=
EXTT1=
EXTT2=
EXTT3=
EXTT4=
EXTT5=
EXTT6=
EXTT7=
EXTT8=
PLAYORDER=
